# xmcd CD database file
#
# Track frame offsets:
#	150
#	13575
#	42412
#	76477
#	85895
#	103682
#	125285
#	149197
#	177620
#	200437
#	211877
#	232010
#
# Disc length: 3311 seconds
#
# Revision: 1
# Processed by: cddbd v1.5.1PL0 Copyright (c) Steve Scherf et al.
# Submitted via: CDex 1.51
#
DISCID=ad0ced0c
DTITLE=Mark Lockheart - Imaginary Dances
DYEAR=2002
DGENRE=Jazz
TTITLE0=the opener
TTITLE1=in two parts
TTITLE2=from another time
TTITLE3=astaire
TTITLE4=busby berkeley (part 1)
TTITLE5=busby berkeley (part 2)
TTITLE6=garden rain
TTITLE7=capital of the world
TTITLE8=this moment
TTITLE9=chorale
TTITLE10=before we go
TTITLE11=not far from the out
EXTD=YEAR: 2002
EXTT0=
EXTT1=
EXTT2=
EXTT3=
EXTT4=
EXTT5=
EXTT6=
EXTT7=
EXTT8=
EXTT9=
EXTT10=
EXTT11=
PLAYORDER=
